<?xml version="1.0" standalone="no"?>
<!DOCTYPE svg PUBLIC "-//W3C//DTD SVG 20010904//EN"
 "http://www.w3.org/TR/2001/REC-SVG-20010904/DTD/svg10.dtd">
<svg version="1.0" xmlns="http://www.w3.org/2000/svg"
 width="260.000000pt" height="260.000000pt" viewBox="0 0 260.000000 260.000000"
 preserveAspectRatio="xMidYMid meet">
<metadata>
Created by potrace 1.14, written by Peter Selinger 2001-2017
</metadata>
<g transform="translate(0.000000,260.000000) scale(0.100000,-0.100000)"
fill="#000000" stroke="none">
<path d="M0 1300 l0 -1300 1300 0 1300 0 0 1300 0 1300 -1300 0 -1300 0 0
-1300z m723 544 c16 -9 18 -28 18 -183 0 -95 -3 -176 -6 -179 -6 -6 86 -34
120 -36 30 -2 34 65 6 93 -31 31 -6 25 30 -7 23 -21 34 -42 44 -92 7 -36 12
-67 9 -69 -2 -2 -41 2 -86 8 -146 23 -181 24 -227 8 l-44 -16 42 43 41 42 0
91 c0 55 -4 94 -11 99 -8 4 -8 9 0 17 6 6 11 37 11 69 0 45 -7 72 -30 118 -44
88 -39 101 18 48 26 -24 55 -49 65 -54z m341 -247 c0 -149 -10 -231 -26 -221
-6 4 -19 27 -30 51 -16 36 -19 66 -19 161 0 69 -4 121 -11 129 -8 10 -1 13 38
13 l49 0 -1 -133z m239 105 c-13 -23 -21 -27 -49 -24 l-34 4 0 -47 0 -48 35 6
35 6 0 -40 c0 -36 -2 -38 -19 -28 -35 22 -51 5 -51 -56 l0 -55 44 0 c24 0 46
5 48 11 2 6 11 -6 21 -25 l17 -36 -112 0 c-87 0 -109 3 -100 12 16 16 16 170
0 186 -9 9 -9 12 0 12 17 0 17 136 0 143 -7 3 31 6 84 6 l97 1 -16 -28z m246
-1 c-15 -21 -32 -30 -61 -34 -23 -3 -48 -12 -56 -21 -14 -14 -14 -17 4 -37 10
-12 36 -30 56 -40 48 -24 68 -55 68 -102 0 -55 -43 -97 -98 -97 -57 0 -70 7
-92 51 -26 50 -25 53 5 24 28 -29 61 -32 93 -9 33 23 29 61 -10 82 -18 9 -47
31 -65 49 -42 40 -45 88 -8 130 l25 28 -6 -31 c-4 -19 -1 -34 5 -38 6 -4 11
-1 11 7 0 8 9 26 21 41 18 22 28 26 75 26 l55 0 -22 -29z m-271 -461 c20 -26
22 -43 23 -143 1 -63 5 -120 9 -127 6 -10 -8 -32 -43 -69 l-51 -56 -50 54
c-28 29 -49 59 -47 65 2 6 4 57 5 113 1 85 -2 103 -14 103 -8 1 2 7 24 15 21
7 55 27 75 44 20 16 39 30 42 30 3 1 15 -12 27 -29z m270 5 c-9 -21 -18 -25
-55 -25 l-43 0 0 -41 c0 -40 1 -41 30 -37 26 4 30 1 30 -18 0 -12 2 -29 5 -36
4 -11 -3 -13 -30 -10 l-36 4 2 -126 1 -126 -35 -43 -36 -42 -1 171 c0 118 -4
174 -12 182 -9 9 -9 15 0 24 7 7 12 37 12 68 0 31 -5 61 -12 68 -9 9 11 12 90
12 l102 0 -12 -25z m-831 -231 c-3 -3 -12 -4 -19 -1 -8 3 -5 6 6 6 11 1 17 -2
13 -5z m-44 -11 c-7 -2 -19 -2 -25 0 -7 3 -2 5 12 5 14 0 19 -2 13 -5z"/>
<path d="M1202 1148 c-6 -7 -10 -45 -10 -85 0 -40 -3 -77 -7 -83 -3 -5 0 -17
8 -25 13 -12 17 -12 30 3 21 23 23 202 3 202 -8 0 -18 -6 -24 -12z"/>
</g>
</svg>
